<svg id="Layer_1" data-name="Layer 1" xmlns="http://www.w3.org/2000/svg" viewBox="0 0 1920 700.36"><path d="M597,484.33v1.17H513v-1.17h.79a13.23,13.23,0,0,0,13.06-11.2c.06-.42.1-.85.13-1.29,0-.24,0-.48,0-.72V275.68c0-.48,0-.95,0-1.42,0-.17,0-.35,0-.53,0-.44,0-.89,0-1.33s-.05-.87-.08-1.31c-.09-1.42-.22-2.83-.4-4.22-.22-1.74-.51-3.47-.86-5.17a69.26,69.26,0,0,0-40.16-49.44c-.32-.16-.66-.3-1-.43a67.65,67.65,0,0,0-13.38-4,69.08,69.08,0,0,0-13.19-1.26H428.33a69.18,69.18,0,0,0-13.2,1.26,67.76,67.76,0,0,0-13.37,4c-.34.13-.68.27-1,.43a68.7,68.7,0,0,0-13.59,7.86,69.32,69.32,0,0,0-26.57,41.58c-.34,1.7-.63,3.43-.85,5.17-.18,1.39-.31,2.8-.4,4.22,0,.44-.06.87-.08,1.31s0,.89-.05,1.33c0,.18,0,.36,0,.53s0,.64,0,1v195.9c0,.24,0,.48,0,.72,0,.44.07.87.13,1.29a13.23,13.23,0,0,0,13.06,11.2h.79v1.17H289.24v-.39h0v-.39h0v-.39H290a13.21,13.21,0,0,0,13.05-11.2c.07-.42.11-.85.14-1.29,0-.24,0-.48,0-.72V275.68c0-.16,0-.31,0-.46,0-.32,0-.64,0-1s0-.35,0-.52c0-.45,0-.9,0-1.33s0-.88-.07-1.32c-.09-1.42-.22-2.83-.4-4.21q-.33-2.62-.86-5.17a69.25,69.25,0,0,0-40.16-49.45l-1-.43a68.33,68.33,0,0,0-13.38-4,69.18,69.18,0,0,0-13.2-1.26H204.53A69.1,69.1,0,0,0,178,211.83l-1,.43a69.33,69.33,0,0,0-40.16,49.45c-.34,1.7-.63,3.42-.85,5.17-.18,1.38-.32,2.79-.4,4.21,0,.44-.06.88-.08,1.32s0,.88-.05,1.33c0,.17,0,.35,0,.52,0,.47,0,.94,0,1.42V471.12c0,.25,0,.48,0,.72,0,.44.07.87.13,1.3a13.22,13.22,0,0,0,13.06,11.19h.78v1.17H65.44v-1.17h.78a13.22,13.22,0,0,0,13.06-11.19c.06-.43.11-.86.13-1.3,0-.24,0-.47,0-.72V275.68a70.56,70.56,0,0,1,1.39-14,70.06,70.06,0,0,1,54.56-54.57q1.71-.34,3.45-.6a69.19,69.19,0,0,1,9.94-.79H289.86a69.42,69.42,0,0,1,9.94.79c1.16.17,2.3.37,3.44.6a69.63,69.63,0,0,1,28,12.59,69.63,69.63,0,0,1,28-12.59c1.15-.23,2.29-.43,3.45-.6a69.19,69.19,0,0,1,9.94-.79H513.66a69.3,69.3,0,0,1,9.94.79c1.16.17,2.3.37,3.44.6a69.61,69.61,0,0,1,28,12.59,70.51,70.51,0,0,1,14,14,69.67,69.67,0,0,1,14,42V471.2c0,.22,0,.43,0,.64,0,.44.07.87.13,1.29a13.23,13.23,0,0,0,13.06,11.2Z" style="fill:#ffffff"/><path d="M922.32,484.33v1.17H838.39v-1.17h.78a13.22,13.22,0,0,0,13.06-11.19c.06-.43.11-.86.13-1.3,0-.24,0-.47,0-.72V346H684.53v125.1c0,.25,0,.48,0,.72,0,.44.08.87.14,1.3a13.21,13.21,0,0,0,13.06,11.19h.78v1.17H614.59v-1.17h.78a13.22,13.22,0,0,0,13.06-11.19c.06-.43.11-.86.13-1.3,0-.24,0-.47,0-.72V275.68a70,70,0,0,1,56-68.54c1.14-.23,2.28-.43,3.44-.6a69.42,69.42,0,0,1,9.94-.79H839a69.19,69.19,0,0,1,9.94.79q1.74.26,3.45.6A70,70,0,0,1,907,261.7a70.74,70.74,0,0,1,1.39,14V471.21c0,.21,0,.42,0,.63,0,.44.07.87.13,1.3a13.22,13.22,0,0,0,13.06,11.19ZM684.53,275.68v69.56H852.39V275.68c0-.48,0-.95,0-1.42,0-.17,0-.35,0-.52,0-.45,0-.9-.05-1.34s0-.87-.08-1.31c-.08-1.42-.22-2.83-.4-4.22-.22-1.74-.51-3.47-.85-5.17a69.26,69.26,0,0,0-40.16-49.44c-.33-.16-.67-.3-1-.43a67.85,67.85,0,0,0-13.38-4,69.18,69.18,0,0,0-13.2-1.26H753.68a69.11,69.11,0,0,0-13.2,1.26,67.65,67.65,0,0,0-13.38,4c-.34.13-.67.27-1,.43a68.7,68.7,0,0,0-13.59,7.86,69.2,69.2,0,0,0-26.57,41.58c-.35,1.7-.64,3.43-.86,5.17-.18,1.39-.31,2.8-.4,4.22,0,.44-.06.88-.08,1.31s0,.89,0,1.34c0,.17,0,.35,0,.52C684.53,274.73,684.53,275.2,684.53,275.68Z" style="fill:#ffffff"/><path d="M1247.47,205.75v1.18h-.79a13.22,13.22,0,0,0-13.06,11.19c-.06.42-.1.85-.13,1.29,0,.25,0,.48,0,.72V415.58a70,70,0,0,1-56,68.54c-1.14.23-2.28.43-3.44.6a69.42,69.42,0,0,1-9.94.78H1023.05a69.19,69.19,0,0,1-9.94-.78c-1.16-.17-2.3-.37-3.45-.6a70.06,70.06,0,0,1-54.56-54.57,70.64,70.64,0,0,1-1.39-14V220.05c0-.21,0-.42,0-.64,0-.44-.07-.87-.13-1.29a13.21,13.21,0,0,0-13.06-11.19h-.78v-1.18h83.93v1.18h-.78a13.21,13.21,0,0,0-13.06,11.19c-.06.42-.11.85-.13,1.29,0,.25,0,.48,0,.72V415.58c0,.48,0,.95,0,1.42,0,.17,0,.35,0,.52,0,.45,0,.89,0,1.33s0,.88.08,1.32c.08,1.42.22,2.83.4,4.21.22,1.75.51,3.47.85,5.17A69.25,69.25,0,0,0,1051.23,479l1,.43a69.1,69.1,0,0,0,26.58,5.29h29.56a69.11,69.11,0,0,0,13.2-1.26,68.33,68.33,0,0,0,13.38-4c.34-.14.68-.28,1-.43a69.27,69.27,0,0,0,40.16-49.45q.53-2.55.86-5.17c.18-1.38.31-2.79.4-4.21,0-.44.06-.88.08-1.32s0-.88,0-1.33c0-.17,0-.35,0-.52,0-.47,0-.94,0-1.42V220.13c0-.24,0-.47,0-.72,0-.44-.07-.87-.14-1.29a13.2,13.2,0,0,0-13-11.19h-.79v-1.18h83.94Z" style="fill:#ffffff"/><path d="M1544.63,415.57a.17.17,0,0,0,0,.07A70.25,70.25,0,0,1,1458,483.53a68.27,68.27,0,0,1-6.55-1.94,69.59,69.59,0,0,1-15.71-7.87c-.91-.62-3.52-2.52-3.53-2.52a69.72,69.72,0,0,0-30.12-12.49,69.14,69.14,0,0,0-23.49.32c-1.48.27-3,.57-4.42,1-1.79.47-3.58,1-5.34,1.59a75.72,75.72,0,0,0-9.89,4.25,68.92,68.92,0,0,0-21.63,17.6l-.84,1c-.26.35-.54.68-.79,1h-70.79V205.75h55.94V457h66.46a89.81,89.81,0,0,1,16.86,1.23,69.78,69.78,0,0,1,15.39,4.81,69,69,0,0,1,8.86,4.73l.55.36c3,1.94,5.77,4.18,8.77,6.11a64.47,64.47,0,0,0,9.35,5,69.53,69.53,0,0,0,41.55-63.64V205.75h56Z" style="fill:#ffffff"/><path d="M1841.78,289.68h-56V234.27h-66.46a90.48,90.48,0,0,1-16.85-1.22,70.22,70.22,0,0,1-24.25-9.54l-.56-.36c-3-1.94-5.76-4.19-8.76-6.11a64,64,0,0,0-9.35-5,69.49,69.49,0,0,0,27.73,133.18h.58V346h-.58a69.53,69.53,0,0,0-27.73,133.19,65,65,0,0,0,9.35-5c3-1.93,5.78-4.17,8.76-6.11l.56-.36a68.92,68.92,0,0,1,8.85-4.73,69.69,69.69,0,0,1,15.4-4.81,89.64,89.64,0,0,1,16.85-1.23h66.46V401.57h56V485.5H1771c-.25-.36-.52-.69-.79-1l-.84-1a68.74,68.74,0,0,0-21.62-17.6,76.43,76.43,0,0,0-9.9-4.25q-2.64-.88-5.34-1.59c-1.45-.38-2.94-.68-4.42-1a69.14,69.14,0,0,0-23.49-.32,69.72,69.72,0,0,0-30.12,12.49s-2.61,1.9-3.53,2.52a69.18,69.18,0,0,1-15.71,7.87,67.43,67.43,0,0,1-6.55,1.94A70.13,70.13,0,0,1,1562,415.64v-.27a70.17,70.17,0,0,1,42.86-64.63,72.34,72.34,0,0,1,23.06-5.11,72.61,72.61,0,0,1-23.06-5.11A70.22,70.22,0,0,1,1562,275.89v-.28a70.24,70.24,0,0,1,86.64-67.88,67.38,67.38,0,0,1,6.55,1.93,69.21,69.21,0,0,1,15.71,7.88c.92.62,3.53,2.52,3.53,2.52a69.72,69.72,0,0,0,30.12,12.49,69.39,69.39,0,0,0,23.49-.32c1.48-.28,3-.58,4.42-1,1.8-.47,3.58-1,5.34-1.58a77.84,77.84,0,0,0,9.9-4.25,68.74,68.74,0,0,0,21.62-17.6q.44-.53.84-1.05c.27-.34.54-.68.79-1h70.8v83.93Z" style="fill:#ffffff"/></svg>